<?xml version="1.0" encoding="utf-8"?>
<svg version="1.1" id="Слой_1" xmlns="http://www.w3.org/2000/svg" xmlns:xlink="http://www.w3.org/1999/xlink" x="0px" y="0px" viewBox="0 0 1080 1080" style="enable-background:new 0 0 1080 1080;" xml:space="preserve">
<style type="text/css">
	.st0{fill:#FFD54F;}
	.st1{fill:#9596FF;}
	.st2{fill:none;stroke:#8ED2FF;stroke-width:4;stroke-miterlimit:10;}
	.st3{fill:#A7CCFF;}
	.st4{fill:#B3A5FF;}
	.st5{fill:#EAC2FF;}
	.st6{fill:none;stroke:#D8D4FF;stroke-width:4;stroke-miterlimit:10;}
	.st7{fill:#845BFF;}
</style>
<polygon class="st0" points="60.58,335.33 73.79,310.38 87.67,334.96 112.62,348.16 88.04,362.05 74.84,387 60.95,362.42 36,349.21 
	"/>
<polygon class="st0" points="345.99,141.35 354.12,126 362.65,141.12 378,149.24 362.88,157.78 354.76,173.12 346.22,158.01 
	330.88,149.88 "/>
<polygon class="st0" points="807.58,101.33 820.79,76.38 834.67,100.96 859.62,114.16 835.04,128.05 821.84,153 807.95,128.42 
	783,115.21 "/>
<polygon class="st0" points="899.96,421.24 909.61,403 919.76,420.97 938,430.62 920.03,440.76 910.38,459 900.24,441.04 
	882,431.39 "/>
<path class="st1" d="M177.09,746.55c99-126,153-63,207-45s108,99,306,9s288,36,306,54c0.15,0.15,0.28,0.29,0.42,0.45c0,0,0,0,0,0
	c0.3,0.34,0.57,0.7,0.82,1.08c13.05,20.25-54.76,90.13-37.24,151.47c18,63-36.38,27-63,90c-26.62,63-198,45-270,36s-72,9-189-63
	s-27-72-144-36s-126,117-180,36S177.09,746.55,177.09,746.55z"/>
<polygon class="st2" points="443.66,596.48 414,652.12 457.75,697.52 514.44,669.94 505.74,607.5 "/>
<polygon class="st2" points="650.37,488.5 620.11,480.35 603,506.61 622.69,531 651.97,519.81 "/>
<g>
	<g>
		<path class="st3" d="M720,387.79c-44.94-4.22-91.93,5.18-131.16,27.77c-8.8,5.07-17.26,11.1-23.93,18.82
			c-6.97,8.06-11.38,17.69-13.58,28.08c-2.24,10.55-2.55,21.47-2.21,32.22c0.31,10.04,1.37,20.05,3,29.95
			c6.76,41.11,23.33,79.73,39.02,118.05c15.83,38.66,31.64,78.25,36.21,120.1c2.34,21.41,1.64,45.02-14.21,61.46
			c-15.43,16.01-38.06,21.22-59.41,23.24c-6.02,0.57-12.05,0.93-18.08,1.29c-1.92,0.11-1.93,3.12,0,3
			c22.3-1.33,45.62-2.85,65.37-14.36c8.35-4.86,15.81-11.43,21.02-19.62c5.7-8.98,8.28-19.51,9.08-30.02
			c0.8-10.68-0.18-21.43-1.64-32.01c-1.42-10.29-3.49-20.48-6.04-30.54c-5.11-20.18-12.12-39.83-19.7-59.2
			c-15.21-38.84-33.04-76.91-43.47-117.44c-5.16-20.02-8.35-40.58-8.24-61.29c0.06-11.19,0.98-22.57,4.76-33.19
			c3.66-10.26,10.3-18.82,18.63-25.74c8.22-6.83,17.71-12.06,27.31-16.68c10.48-5.04,21.36-9.23,32.5-12.55
			c21.89-6.53,44.75-9.69,67.59-9.31c5.74,0.1,11.48,0.43,17.19,0.97C721.92,390.97,721.91,387.97,720,387.79L720,387.79z"/>
	</g>
</g>
<g>
	<g>
		<path class="st4" d="M720.56,371.85c-27-1-54.04-0.19-80.93,2.5c-21.65,2.16-43.54,5.16-64.13,12.5
			c-18.88,6.73-36.52,17.38-48.6,33.67c-13.16,17.75-18.39,40.24-18.99,62.02c-0.72,26.05,5,51.71,9.44,77.22
			c4.59,26.39,7.98,53,10.14,79.7c1.09,13.39,1.93,26.82,2.33,40.25c0.38,12.74,0.13,25.65-2.89,38.1
			c-5.68,23.37-21.41,43.16-37.04,60.82c-30.21,34.12-66.46,62.57-94.47,98.69c-3.35,4.32-6.57,8.74-9.64,13.26
			c-1.09,1.6,1.51,3.1,2.59,1.51c25.59-37.65,61.27-66.54,92.47-99.22c15.68-16.43,31.49-34.17,41.68-54.64
			c5.31-10.66,8.46-21.97,9.68-33.8c1.3-12.65,0.7-25.43,0.06-38.1c-1.32-26.18-3.82-52.3-7.45-78.26
			c-3.66-26.18-9.68-52.05-12.59-78.33c-2.58-23.36-2-47.69,7.12-69.69c8.29-19.97,23.73-34.93,42.95-44.42
			c18.66-9.22,39.47-13.55,59.97-16.28c26.1-3.48,52.49-5.05,78.82-4.92c6.5,0.03,12.99,0.18,19.48,0.42
			C722.49,374.92,722.49,371.92,720.56,371.85L720.56,371.85z"/>
	</g>
</g>
<g>
	<g>
		<path class="st5" d="M719.65,358.73c-37.63,2.84-75.29-1.37-112.95-0.36c-30.06,0.81-60.38,5.48-87.67,18.7
			c-12.54,6.07-24.28,13.99-34.09,23.92c-11.19,11.32-19.04,25.01-24.98,39.7c-6.32,15.62-11.04,31.9-16.2,47.93
			c-5.06,15.72-10.29,31.41-16.69,46.65c-6.32,15.05-13.84,29.67-23.26,43.03c-8.71,12.34-19.45,24.14-33.41,30.53
			c-3.45,1.58-7.07,2.73-10.79,3.48c-1.89,0.39-1.09,3.28,0.8,2.89c14.83-3.03,27.21-12.65,36.98-23.84
			c10.46-11.97,18.77-25.85,25.72-40.1c14.45-29.6,23.05-61.52,33.5-92.63c5.36-15.95,11.51-31.88,21.7-45.43
			c8.52-11.33,19.54-20.63,31.69-27.87c25.08-14.93,54.44-21.48,83.31-23.35c37.4-2.43,74.83,1.81,112.25,0.52
			c4.7-0.16,9.4-0.42,14.09-0.77C721.56,361.59,721.57,358.59,719.65,358.73L719.65,358.73z"/>
	</g>
</g>
<rect x="360" y="279" class="st6" width="360" height="549"/>
<path class="st7" d="M689.33,738.67c17.25-11.41,39.78-10.63,56.38,1.7c96.16,71.45-20.58,129.78,111.13,195.63
	c144,72,72,126,54,126s-41.38,18-88.79,18c-47.41,0-136.21-81-190.21-63s-117,81-207,54s-45-63-144-108s-99-9-126,45
	s-144,96.31-153,27s18-54,18-144s126-198,198-153s81,63,144,0s162-81,216-9C613.62,776.71,661.26,757.24,689.33,738.67z"/>
</svg>
